<svg width="35" height="44" viewBox="0 0 35 44" fill="none" xmlns="http://www.w3.org/2000/svg">
<path id="Vector" d="M18.5935 8.61528C18.4514 8.61683 18.3104 8.59021 18.1785 8.53695C18.0467 8.48368 17.9265 8.40482 17.8249 8.30485C17.7234 8.20488 17.6424 8.08577 17.5866 7.95433C17.5308 7.82288 17.5013 7.68166 17.4998 7.53875C17.4998 3.37343 20.9297 9.95828e-05 25.153 9.95828e-05C25.2952 -0.00183789 25.4364 0.0245133 25.5685 0.0776382C25.7005 0.130763 25.8208 0.209614 25.9224 0.309657C26.0241 0.4097 26.1051 0.528962 26.1607 0.660587C26.2164 0.792212 26.2456 0.933602 26.2468 1.07663C26.2468 5.24195 22.8197 8.61528 18.5935 8.61528ZM34.5621 31.2928C34.985 31.6038 35.1221 32.1728 34.8829 32.6363C31.0329 40.2219 27.9617 44 25.1559 44C23.8493 44 22.566 43.5835 21.3147 42.7739C20.4167 42.194 19.3767 41.875 18.3097 41.8523C17.2428 41.8295 16.1903 42.1038 15.2686 42.6448C13.7519 43.5395 12.3082 44 10.9374 44C6.81033 44 0 31.4835 0 24.6166C0 17.2833 3.90537 11.6923 9.84363 11.6923C12.6378 11.6923 15.0498 12.0971 17.0769 12.9214C17.9344 13.2675 18.9056 13.2441 19.7427 12.8481C21.3876 12.0678 23.5576 11.6923 26.2468 11.6923C29.5338 11.6923 32.4008 13.3057 34.7808 16.4297C34.8669 16.5423 34.9296 16.6712 34.9653 16.8087C35.001 16.9462 35.0088 17.0894 34.9884 17.23C34.968 17.3706 34.9198 17.5057 34.8465 17.6272C34.7733 17.7487 34.6766 17.8542 34.5621 17.9374C31.905 19.9027 30.6246 22.1057 30.6246 24.6166C30.6246 27.1246 31.905 29.3304 34.5621 31.2928Z" fill="black"/>
</svg>
